<?xml version="1.0" encoding="UTF-8" standalone="no"?>
<!DOCTYPE svg PUBLIC "-//W3C//DTD SVG 1.1//EN" "http://www.w3.org/Graphics/SVG/1.1/DTD/svg11.dtd">
<svg width="100%" height="100%" viewBox="0 0 8334 8334" version="1.1" xmlns="http://www.w3.org/2000/svg" xmlns:xlink="http://www.w3.org/1999/xlink" xml:space="preserve" xmlns:serif="http://www.serif.com/" style="fill-rule:evenodd;clip-rule:evenodd;stroke-miterlimit:10;">
    <g id="Layer-1" serif:id="Layer 1" transform="matrix(4.16667,0,0,4.16667,0,0)">
        <g transform="matrix(0,-1,-1,0,999,34.5)">
            <path d="M-964.5,-964.5C-1497.18,-964.5 -1929,-532.679 -1929,0C-1929,532.679 -1497.18,964.5 -964.5,964.5C-431.821,964.5 0,532.679 0,0C0,-532.679 -431.821,-964.5 -964.5,-964.5" style="fill:rgb(11,11,11);fill-rule:nonzero;"/>
        </g>
        <g transform="matrix(0,-1,-1,0,1000.16,187)">
            <path d="M-812.526,-812.526C-1261.27,-812.526 -1625.05,-448.746 -1625.05,-0C-1625.05,448.746 -1261.27,812.526 -812.526,812.526C-363.78,812.526 -0,448.746 -0,-0C-0,-448.746 -363.78,-812.526 -812.526,-812.526" style="fill:rgb(11,11,11);fill-rule:nonzero;"/>
        </g>
        <g transform="matrix(0,-1,-1,0,1000.16,187)">
            <path d="M-812.526,-812.526C-1261.27,-812.526 -1625.05,-448.746 -1625.05,-0C-1625.05,448.746 -1261.27,812.526 -812.526,812.526C-363.78,812.526 -0,448.746 -0,-0C-0,-448.746 -363.78,-812.526 -812.526,-812.526Z" style="fill:none;fill-rule:nonzero;stroke:rgb(255,215,0);stroke-width:20px;"/>
        </g>
        <g transform="matrix(1,-0.000471995,-0.000471995,-1,965.983,1859.05)">
            <rect x="0.017" y="-69.951" width="69.967" height="69.967" style="fill:rgb(255,215,0);stroke:rgb(11,11,11);stroke-width:1px;"/>
        </g>
        <g transform="matrix(0.989753,-0.142789,-0.142789,-0.989753,1084.74,1861.09)">
            <rect x="4.637" y="-64.614" width="69.966" height="69.967" style="fill:rgb(255,215,0);stroke:rgb(11,11,11);stroke-width:1px;"/>
        </g>
        <g transform="matrix(0.95936,-0.282184,-0.282184,-0.95936,1204.41,1847.04)">
            <rect x="8.45" y="-58.673" width="69.967" height="69.967" style="fill:rgb(255,215,0);stroke:rgb(11,11,11);stroke-width:1px;"/>
        </g>
        <g transform="matrix(0.909436,-0.415843,-0.415843,-0.909436,1322.84,1816.39)">
            <rect x="11.379" y="-52.251" width="69.967" height="69.967" style="fill:rgb(255,215,0);stroke:rgb(11,11,11);stroke-width:1px;"/>
        </g>
        <g transform="matrix(0.840999,-0.541037,-0.541037,-0.840999,1437.7,1768.91)">
            <rect x="13.365" y="-45.476" width="69.968" height="69.966" style="fill:rgb(255,215,0);stroke:rgb(11,11,11);stroke-width:1px;"/>
        </g>
        <g transform="matrix(0.755439,-0.655219,-0.655219,-0.755439,1546.46,1704.73)">
            <rect x="14.366" y="-38.489" width="69.967" height="69.967" style="fill:rgb(255,215,0);stroke:rgb(11,11,11);stroke-width:1px;"/>
        </g>
        <g transform="matrix(0.654506,-0.756057,-0.756057,-0.654506,1646.49,1624.41)">
            <rect x="14.363" y="-31.43" width="69.968" height="69.967" style="fill:rgb(255,215,0);stroke:rgb(11,11,11);stroke-width:1px;"/>
        </g>
        <g transform="matrix(0.540243,-0.841509,-0.841509,-0.540243,1735.16,1528.98)">
            <rect x="13.356" y="-24.444" width="69.967" height="69.967" style="fill:rgb(255,215,0);stroke:rgb(11,11,11);stroke-width:1px;"/>
        </g>
        <g transform="matrix(0.414987,-0.909827,-0.909827,-0.414987,1809.92,1419.97)">
            <rect x="11.363" y="-17.671" width="69.967" height="69.966" style="fill:rgb(255,215,0);stroke:rgb(11,11,11);stroke-width:1px;"/>
        </g>
        <g transform="matrix(0.281268,-0.959629,-0.959629,-0.281268,1868.39,1299.42)">
            <rect x="8.428" y="-11.252" width="69.966" height="69.966" style="fill:rgb(255,215,0);stroke:rgb(11,11,11);stroke-width:1px;"/>
        </g>
        <g transform="matrix(0.141858,-0.989887,-0.989887,-0.141858,1908.55,1169.86)">
            <rect x="4.609" y="-5.316" width="69.968" height="69.967" style="fill:rgb(255,215,0);stroke:rgb(11,11,11);stroke-width:1px;"/>
        </g>
        <g transform="matrix(-0.000471995,-1,-1,0.000471995,1928.77,1034.2)">
            <rect x="-0.016" y="0.016" width="69.967" height="69.967" style="fill:rgb(255,215,0);stroke:rgb(11,11,11);stroke-width:1px;"/>
        </g>
        <g transform="matrix(-0.142789,-0.989753,-0.989753,0.142789,1927.96,895.735)">
            <rect x="-5.353" y="4.636" width="69.966" height="69.967" style="fill:rgb(255,215,0);stroke:rgb(11,11,11);stroke-width:1px;"/>
        </g>
        <g transform="matrix(-0.282184,-0.95936,-0.95936,0.282184,1905.62,757.962)">
            <rect x="-11.293" y="8.45" width="69.967" height="69.967" style="fill:rgb(255,215,0);stroke:rgb(11,11,11);stroke-width:1px;"/>
        </g>
        <g transform="matrix(-0.415843,-0.909436,-0.909436,0.415843,1861.91,624.487)">
            <rect x="-17.716" y="11.38" width="69.967" height="69.967" style="fill:rgb(255,215,0);stroke:rgb(11,11,11);stroke-width:1px;"/>
        </g>
        <g transform="matrix(-0.541037,-0.840999,-0.840999,0.541037,1797.67,498.878)">
            <rect x="-24.49" y="13.366" width="69.968" height="69.966" style="fill:rgb(255,215,0);stroke:rgb(11,11,11);stroke-width:1px;"/>
        </g>
        <g transform="matrix(-0.655219,-0.755439,-0.755439,0.655219,1714.37,384.527)">
            <rect x="-31.477" y="14.366" width="69.967" height="69.967" style="fill:rgb(255,215,0);stroke:rgb(11,11,11);stroke-width:1px;"/>
        </g>
        <g transform="matrix(-0.756057,-0.654506,-0.654506,0.756057,1614.14,284.51)">
            <rect x="-38.536" y="14.364" width="69.968" height="69.967" style="fill:rgb(255,215,0);stroke:rgb(11,11,11);stroke-width:1px;"/>
        </g>
        <g transform="matrix(-0.841509,-0.540243,-0.540243,0.841509,1499.6,201.469)">
            <rect x="-45.521" y="13.356" width="69.967" height="69.967" style="fill:rgb(255,215,0);stroke:rgb(11,11,11);stroke-width:1px;"/>
        </g>
        <g transform="matrix(-0.909827,-0.414987,-0.414987,0.909827,1373.85,137.5)">
            <rect x="-52.295" y="11.363" width="69.967" height="69.966" style="fill:rgb(255,215,0);stroke:rgb(11,11,11);stroke-width:1px;"/>
        </g>
        <g transform="matrix(-0.959629,-0.281268,-0.281268,0.959629,1240.28,94.0887)">
            <rect x="-58.714" y="8.427" width="69.966" height="69.966" style="fill:rgb(255,215,0);stroke:rgb(11,11,11);stroke-width:1px;"/>
        </g>
        <g transform="matrix(-0.989887,-0.141858,-0.141858,0.989887,1102.45,72.0538)">
            <rect x="-64.65" y="4.609" width="69.968" height="69.967" style="fill:rgb(255,215,0);stroke:rgb(11,11,11);stroke-width:1px;"/>
        </g>
        <g transform="matrix(-1,0.000471995,0.000471995,1,963.983,71.5493)">
            <rect x="-69.983" y="-0.017" width="69.967" height="69.967" style="fill:rgb(255,215,0);stroke:rgb(11,11,11);stroke-width:1px;"/>
        </g>
        <g transform="matrix(-0.989753,0.142789,0.142789,0.989753,828.371,92.0705)">
            <rect x="-74.603" y="-5.354" width="69.966" height="69.967" style="fill:rgb(255,215,0);stroke:rgb(11,11,11);stroke-width:1px;"/>
        </g>
        <g transform="matrix(-0.95936,0.282184,0.282184,0.95936,698.888,132.514)">
            <rect x="-78.417" y="-11.293" width="69.967" height="69.967" style="fill:rgb(255,215,0);stroke:rgb(11,11,11);stroke-width:1px;"/>
        </g>
        <g transform="matrix(-0.909436,0.415843,0.415843,0.909436,578.468,191.258)">
            <rect x="-81.347" y="-17.716" width="69.967" height="69.967" style="fill:rgb(255,215,0);stroke:rgb(11,11,11);stroke-width:1px;"/>
        </g>
        <g transform="matrix(-0.840999,0.541037,0.541037,0.840999,469.623,266.253)">
            <rect x="-83.332" y="-24.489" width="69.968" height="69.966" style="fill:rgb(255,215,0);stroke:rgb(11,11,11);stroke-width:1px;"/>
        </g>
        <g transform="matrix(-0.755439,0.655219,0.655219,0.755439,374.385,355.14)">
            <rect x="-84.333" y="-31.477" width="69.967" height="69.967" style="fill:rgb(255,215,0);stroke:rgb(11,11,11);stroke-width:1px;"/>
        </g>
        <g transform="matrix(-0.654506,0.756057,0.756057,0.654506,294.282,455.357)">
            <rect x="-84.33" y="-38.535" width="69.968" height="69.967" style="fill:rgb(255,215,0);stroke:rgb(11,11,11);stroke-width:1px;"/>
        </g>
        <g transform="matrix(-0.540243,0.841509,0.841509,0.540243,230.343,564.264)">
            <rect x="-83.321" y="-45.521" width="69.967" height="69.967" style="fill:rgb(255,215,0);stroke:rgb(11,11,11);stroke-width:1px;"/>
        </g>
        <g transform="matrix(-0.414987,0.909827,0.909827,0.414987,183.119,679.233)">
            <rect x="-81.329" y="-52.294" width="69.967" height="69.966" style="fill:rgb(255,215,0);stroke:rgb(11,11,11);stroke-width:1px;"/>
        </g>
        <g transform="matrix(-0.281268,0.959629,0.959629,0.281268,152.734,797.743)">
            <rect x="-78.393" y="-58.714" width="69.966" height="69.966" style="fill:rgb(255,215,0);stroke:rgb(11,11,11);stroke-width:1px;"/>
        </g>
        <g transform="matrix(-0.141858,0.989887,0.989887,0.141858,138.955,917.445)">
            <rect x="-74.576" y="-64.65" width="69.968" height="69.967" style="fill:rgb(255,215,0);stroke:rgb(11,11,11);stroke-width:1px;"/>
        </g>
        <g transform="matrix(0.000471995,1,1,-0.000471995,141.266,1036.2)">
            <rect x="-69.95" y="-69.984" width="69.967" height="69.967" style="fill:rgb(255,215,0);stroke:rgb(11,11,11);stroke-width:1px;"/>
        </g>
        <g transform="matrix(0.142789,0.989753,0.989753,-0.142789,158.934,1152.1)">
            <rect x="-64.613" y="-74.604" width="69.966" height="69.967" style="fill:rgb(255,215,0);stroke:rgb(11,11,11);stroke-width:1px;"/>
        </g>
        <g transform="matrix(0.282184,0.95936,0.95936,-0.282184,191.088,1263.48)">
            <rect x="-58.673" y="-78.417" width="69.967" height="69.967" style="fill:rgb(255,215,0);stroke:rgb(11,11,11);stroke-width:1px;"/>
        </g>
        <g transform="matrix(0.415843,0.909436,0.909436,-0.415843,236.776,1368.86)">
            <rect x="-52.251" y="-81.346" width="69.967" height="69.967" style="fill:rgb(255,215,0);stroke:rgb(11,11,11);stroke-width:1px;"/>
        </g>
        <g transform="matrix(0.541037,0.840999,0.840999,-0.541037,295.008,1466.96)">
            <rect x="-45.477" y="-83.331" width="69.968" height="69.966" style="fill:rgb(255,215,0);stroke:rgb(11,11,11);stroke-width:1px;"/>
        </g>
        <g transform="matrix(0.655219,0.755439,0.755439,-0.655219,364.782,1556.6)">
            <rect x="-38.489" y="-84.333" width="69.967" height="69.967" style="fill:rgb(255,215,0);stroke:rgb(11,11,11);stroke-width:1px;"/>
        </g>
        <g transform="matrix(0.756057,0.654506,0.654506,-0.756057,445.085,1636.72)">
            <rect x="-31.431" y="-84.329" width="69.968" height="69.967" style="fill:rgb(255,215,0);stroke:rgb(11,11,11);stroke-width:1px;"/>
        </g>
        <g transform="matrix(0.841509,0.540243,0.540243,-0.841509,534.889,1706.29)">
            <rect x="-24.444" y="-83.321" width="69.967" height="69.967" style="fill:rgb(255,215,0);stroke:rgb(11,11,11);stroke-width:1px;"/>
        </g>
        <g transform="matrix(0.909827,0.414987,0.414987,-0.909827,633.114,1764.3)">
            <rect x="-17.672" y="-81.329" width="69.967" height="69.966" style="fill:rgb(255,215,0);stroke:rgb(11,11,11);stroke-width:1px;"/>
        </g>
        <g transform="matrix(0.959629,0.281268,0.281268,-0.959629,738.598,1809.75)">
            <rect x="-11.252" y="-78.394" width="69.966" height="69.966" style="fill:rgb(255,215,0);stroke:rgb(11,11,11);stroke-width:1px;"/>
        </g>
        <g transform="matrix(0.989887,0.141858,0.141858,-0.989887,850.044,1841.65)">
            <rect x="-5.316" y="-74.576" width="69.968" height="69.967" style="fill:rgb(255,215,0);stroke:rgb(11,11,11);stroke-width:1px;"/>
        </g>
        <g transform="matrix(-0.054837,-0.998495,0.998495,-0.054837,0,0)">
            <text x="-1089.95px" y="253px" style="font-family:'Lora-Regular', 'Lora';font-size:114.213px;fill:rgb(227,227,227);">B</text>
        </g>
        <g transform="matrix(0.0399482,-0.999202,0.999202,0.0399482,0,0)">
            <text x="-989.44px" y="348.371px" style="font-family:'Lora-Regular', 'Lora';font-size:114.213px;fill:rgb(227,227,227);">y</text>
        </g>
        <g transform="matrix(0.178709,-0.983902,0.983902,0.178709,0,0)">
            <text x="-841.651px" y="471.691px" style="font-family:'Lora-Regular', 'Lora';font-size:114.213px;fill:rgb(227,227,227);">T</text>
        </g>
        <g transform="matrix(0.278851,-0.960334,0.960334,0.278851,0,0)">
            <text x="-716.811px" y="548.226px" style="font-family:'Lora-Regular', 'Lora';font-size:114.213px;fill:rgb(227,227,227);">h</text>
        </g>
        <g transform="matrix(0.367367,-0.930076,0.930076,0.367367,0,0)">
            <text x="-593.575px" y="606.486px" style="font-family:'Lora-Regular', 'Lora';font-size:114.213px;fill:rgb(227,227,227);">e</text>
        </g>
        <g transform="matrix(0.48974,-0.871869,0.871869,0.48974,0,0)">
            <text x="-417.84px" y="670.672px" style="font-family:'Lora-Regular', 'Lora';font-size:114.213px;fill:rgb(227,227,227);">E</text>
        </g>
        <g transform="matrix(0.592779,-0.805365,0.805365,0.592779,0,0)">
            <text x="-264.776px" y="707.194px" style="font-family:'Lora-Regular', 'Lora';font-size:114.213px;fill:rgb(227,227,227);">m</text>
        </g>
        <g transform="matrix(0.685622,-0.727958,0.727958,0.685622,0,0)">
            <text x="-75.824px" y="722.556px" style="font-family:'Lora-Regular', 'Lora';font-size:114.213px;fill:rgb(227,227,227);">p</text>
        </g>
        <g transform="matrix(0.749107,-0.662449,0.662449,0.749107,0,0)">
            <text x="56.985px" y="720.445px" style="font-family:'Lora-Regular', 'Lora';font-size:114.213px;fill:rgb(227,227,227);">e</text>
        </g>
        <g transform="matrix(0.800737,-0.599016,0.599016,0.800737,0,0)">
            <text x="175.363px" y="708.555px" style="font-family:'Lora-Regular', 'Lora';font-size:114.213px;fill:rgb(227,227,227);">r</text>
        </g>
        <g transform="matrix(0.84767,-0.530524,0.530524,0.84767,0,0)">
            <text x="285.66px" y="686.915px" style="font-family:'Lora-Regular', 'Lora';font-size:114.213px;fill:rgb(227,227,227);">o</text>
        </g>
        <g transform="matrix(0.889472,-0.456989,0.456989,0.889472,0,0)">
            <text x="405.496px" y="655.128px" style="font-family:'Lora-Regular', 'Lora';font-size:114.213px;fill:rgb(227,227,227);">r</text>
        </g>
        <g transform="matrix(0.91363,-0.406547,0.406547,0.91363,0,0)">
            <text x="495.188px" y="628.829px" style="font-family:'Lora-Regular', 'Lora';font-size:114.213px;fill:rgb(227,227,227);">’</text>
        </g>
        <g transform="matrix(0.934015,-0.357234,0.357234,0.934015,0,0)">
            <text x="548.874px" y="599.905px" style="font-family:'Lora-Regular', 'Lora';font-size:114.213px;fill:rgb(227,227,227);">s</text>
        </g>
        <g transform="matrix(0.979656,-0.200686,0.200686,0.979656,0,0)">
            <text x="720.475px" y="489.075px" style="font-family:'Lora-Regular', 'Lora';font-size:114.213px;fill:rgb(227,227,227);">W</text>
        </g>
        <g transform="matrix(0.996176,-0.087371,0.087371,0.996176,0,0)">
            <text x="877.164px" y="392.277px" style="font-family:'Lora-Regular', 'Lora';font-size:114.213px;fill:rgb(227,227,227);">o</text>
        </g>
        <g transform="matrix(0.999992,-0.00395927,0.00395927,0.999992,0,0)">
            <text x="969.679px" y="312.605px" style="font-family:'Lora-Regular', 'Lora';font-size:114.213px;fill:rgb(227,227,227);">r</text>
        </g>
        <g transform="matrix(0.996684,0.0813752,-0.0813752,0.996684,0,0)">
            <text x="1044.88px" y="223.876px" style="font-family:'Lora-Regular', 'Lora';font-size:114.213px;fill:rgb(227,227,227);">d</text>
        </g>
        <g transform="matrix(0.974437,0.224662,-0.224662,0.974437,0,0)">
            <text x="1160.86px" y="58.277px" style="font-family:'Lora-Regular', 'Lora';font-size:114.213px;fill:rgb(227,227,227);">&amp;</text>
        </g>
        <g transform="matrix(0.930233,0.366969,-0.366969,0.930233,0,0)">
            <text x="1259.48px" y="-128.182px" style="font-family:'Lora-Regular', 'Lora';font-size:114.213px;fill:rgb(227,227,227);">T</text>
        </g>
        <g transform="matrix(0.887954,0.459932,-0.459932,0.887954,0,0)">
            <text x="1311.78px" y="-263.359px" style="font-family:'Lora-Regular', 'Lora';font-size:114.213px;fill:rgb(227,227,227);">h</text>
        </g>
        <g transform="matrix(0.841474,0.540297,-0.540297,0.841474,0,0)">
            <text x="1350.6px" y="-390.15px" style="font-family:'Lora-Regular', 'Lora';font-size:114.213px;fill:rgb(227,227,227);">e</text>
        </g>
        <g transform="matrix(0.761149,0.648577,-0.648577,0.761149,0,0)">
            <text x="1374.14px" y="-578.729px" style="font-family:'Lora-Regular', 'Lora';font-size:114.213px;fill:rgb(227,227,227);">E</text>
        </g>
        <g transform="matrix(0.675998,0.736903,-0.736903,0.675998,0,0)">
            <text x="1360.76px" y="-752.236px" style="font-family:'Lora-Regular', 'Lora';font-size:114.213px;fill:rgb(227,227,227);">m</text>
        </g>
        <g transform="matrix(0.581604,0.813472,-0.813472,0.581604,0,0)">
            <text x="1361.12px" y="-923.248px" style="font-family:'Lora-Regular', 'Lora';font-size:114.213px;fill:rgb(227,227,227);">p</text>
        </g>
        <g transform="matrix(0.519112,0.854706,-0.854706,0.519112,0,0)">
            <text x="1355.26px" y="-1027px" style="font-family:'Lora-Regular', 'Lora';font-size:114.213px;fill:rgb(227,227,227);">i</text>
        </g>
        <g transform="matrix(0.46225,0.88675,-0.88675,0.46225,0,0)">
            <text x="1321.38px" y="-1115.9px" style="font-family:'Lora-Regular', 'Lora';font-size:114.213px;fill:rgb(227,227,227);">r</text>
        </g>
        <g transform="matrix(0.38879,0.921327,-0.921327,0.38879,0,0)">
            <text x="1278.7px" y="-1223.9px" style="font-family:'Lora-Regular', 'Lora';font-size:114.213px;fill:rgb(227,227,227);">e</text>
        </g>
        <g transform="matrix(0.334751,0.942307,-0.942307,0.334751,0,0)">
            <text x="1264.06px" y="-1298.87px" style="font-family:'Lora-Regular', 'Lora';font-size:114.213px;fill:rgb(227,227,227);">’</text>
        </g>
        <g transform="matrix(0.284175,0.958773,-0.958773,0.284175,0,0)">
            <text x="1214.05px" y="-1365.85px" style="font-family:'Lora-Regular', 'Lora';font-size:114.213px;fill:rgb(227,227,227);">s</text>
        </g>
        <g transform="matrix(0.140284,0.990111,-0.990111,0.140284,0,0)">
            <text x="1081.81px" y="-1540.85px" style="font-family:'Lora-Regular', 'Lora';font-size:114.213px;fill:rgb(227,227,227);">W</text>
        </g>
        <g transform="matrix(0.0235691,0.999722,-0.999722,0.0235691,0,0)">
            <text x="1005.02px" y="-1667.25px" style="font-family:'Lora-Regular', 'Lora';font-size:114.213px;fill:rgb(227,227,227);">i</text>
        </g>
        <g transform="matrix(-0.0277744,0.999614,-0.999614,-0.0277744,0,0)">
            <text x="954.435px" y="-1718.5px" style="font-family:'Lora-Regular', 'Lora';font-size:114.213px;fill:rgb(227,227,227);">l</text>
        </g>
        <g transform="matrix(-0.0780621,0.996948,-0.996948,-0.0780621,0,0)">
            <text x="901.334px" y="-1766.14px" style="font-family:'Lora-Regular', 'Lora';font-size:114.213px;fill:rgb(227,227,227);">l</text>
        </g>
        <g transform="matrix(0,-1,-1,0,1003.75,359.912)">
            <path d="M-641.842,-641.842C-996.322,-641.842 -1283.68,-354.479 -1283.68,0C-1283.68,354.48 -996.322,641.842 -641.842,641.842C-287.362,641.842 0,354.48 0,0C0,-354.479 -287.362,-641.842 -641.842,-641.842" style="fill:rgb(111,58,128);fill-rule:nonzero;"/>
        </g>
        <g transform="matrix(0,-1,-1,0,1003.75,359.912)">
            <path d="M-641.842,-641.842C-996.322,-641.842 -1283.68,-354.479 -1283.68,0C-1283.68,354.48 -996.322,641.842 -641.842,641.842C-287.362,641.842 0,354.48 0,0C0,-354.479 -287.362,-641.842 -641.842,-641.842Z" style="fill:none;fill-rule:nonzero;stroke:rgb(255,215,0);stroke-width:20px;"/>
        </g>
        <g transform="matrix(1,0,0,1,1157.08,846.138)">
            <path d="M0,68.99C-40.104,92.75 -56.701,93.784 -74.174,83.019C-94.637,70.41 -119.631,41.524 -112.922,-33.687C-109.23,-75.072 -117.59,-115.753 -138.41,-94.592C-154.614,-78.121 -161.797,-44.37 -161.615,5.881C-161.324,87.191 -149.014,134.581 -112.398,161.675C-81.223,184.743 -42.61,162.674 -2.616,114.206C21.253,85.279 46.204,46.487 73.229,-18.874C63.225,-5.453 44.688,42.515 0,68.99" style="fill:rgb(227,227,227);fill-rule:nonzero;"/>
        </g>
        <g transform="matrix(1,0,0,1,1237.36,836.923)">
            <path d="M0,-28.15C-22.852,12.479 -36.707,21.673 -57.221,21.086C-81.247,20.398 -117.336,7.879 -149.131,-60.61C-166.627,-98.297 -194.207,-129.348 -201.656,-100.611C-207.455,-78.245 -196.799,-45.425 -171.518,-1.996C-130.609,68.275 -96.254,103.16 -50.997,108.316C-12.464,112.706 9.941,74.288 20.343,12.316C26.551,-24.67 28.764,-70.74 19.486,-140.856C17.533,-124.232 25.463,-73.422 0,-28.15" style="fill:rgb(227,227,227);fill-rule:nonzero;"/>
        </g>
        <g transform="matrix(1,0,0,1,1253.7,731.023)">
            <path d="M0,-54.495C0.524,-7.884 -6.878,7.007 -24.937,16.755C-46.088,28.172 -83.602,35.375 -145.382,-8.041C-179.376,-31.931 -218.787,-45.032 -210.871,-16.42C-204.709,5.849 -179.071,28.944 -135.461,53.913C-64.899,94.316 -17.704,107.35 24.068,89.187C59.634,73.722 59.828,29.248 37.85,-29.622C24.733,-64.757 3.614,-105.761 -39.478,-161.845C-32.856,-146.471 -0.584,-106.433 0,-54.495" style="fill:rgb(227,227,227);fill-rule:nonzero;"/>
        </g>
        <g transform="matrix(1,0,0,1,1201.74,642.394)">
            <path d="M0,-88.568C23.76,-48.464 24.794,-31.867 14.029,-14.394C1.42,6.069 -27.466,31.063 -102.677,24.354C-144.062,20.662 -184.743,29.022 -163.582,49.842C-147.111,66.046 -113.36,73.229 -63.109,73.047C18.201,72.756 65.591,60.446 92.685,23.83C115.753,-7.345 93.684,-45.958 45.216,-85.952C16.289,-109.821 -22.503,-134.772 -87.864,-161.797C-74.443,-151.793 -26.475,-133.256 0,-88.568" style="fill:rgb(227,227,227);fill-rule:nonzero;"/>
        </g>
        <g transform="matrix(1,0,0,1,1095.38,652.239)">
            <path d="M0,-178.691C40.629,-155.839 49.823,-141.984 49.236,-121.47C48.548,-97.444 36.029,-61.355 -32.46,-29.56C-70.147,-12.064 -101.198,15.516 -72.461,22.965C-50.095,28.764 -17.275,18.108 26.154,-7.173C96.425,-48.082 131.31,-82.437 136.466,-127.694C140.856,-166.227 102.438,-188.632 40.466,-199.034C3.48,-205.242 -42.59,-207.455 -112.706,-198.177C-96.082,-196.224 -45.272,-204.154 0,-178.691" style="fill:rgb(227,227,227);fill-rule:nonzero;"/>
        </g>
        <g transform="matrix(1,0,0,1,963.139,616.16)">
            <path d="M0,-158.959C46.611,-159.483 61.502,-152.081 71.25,-134.022C82.667,-112.871 89.87,-75.357 46.454,-13.577C22.564,20.417 9.463,59.828 38.075,51.912C60.344,45.75 83.439,20.112 108.408,-23.498C148.811,-94.06 161.845,-141.255 143.682,-183.027C128.217,-218.593 83.743,-218.787 24.873,-196.809C-10.262,-183.692 -51.266,-162.573 -107.35,-119.481C-91.976,-126.103 -51.938,-158.375 0,-158.959" style="fill:rgb(227,227,227);fill-rule:nonzero;"/>
        </g>
        <g transform="matrix(1,0,0,1,840.437,578.157)">
            <path d="M0,-68.99C40.104,-92.75 56.701,-93.784 74.174,-83.019C94.637,-70.41 119.631,-41.524 112.922,33.687C109.23,75.072 117.59,115.753 138.41,94.592C154.614,78.121 161.797,44.37 161.615,-5.881C161.324,-87.191 149.014,-134.581 112.398,-161.675C81.223,-184.743 42.61,-162.674 2.616,-114.206C-21.253,-85.279 -46.204,-46.487 -73.229,18.874C-63.225,5.453 -44.688,-42.515 0,-68.99" style="fill:rgb(227,227,227);fill-rule:nonzero;"/>
        </g>
        <g transform="matrix(1,0,0,1,760.158,587.372)">
            <path d="M0,28.15C22.852,-12.479 36.707,-21.673 57.221,-21.086C81.247,-20.398 117.336,-7.879 149.131,60.61C166.627,98.297 194.207,129.348 201.656,100.611C207.455,78.245 196.799,45.425 171.518,1.996C130.609,-68.275 96.254,-103.16 50.997,-108.316C12.464,-112.706 -9.941,-74.288 -20.343,-12.316C-26.551,24.67 -28.764,70.74 -19.486,140.856C-17.533,124.232 -25.463,73.422 0,28.15" style="fill:rgb(227,227,227);fill-rule:nonzero;"/>
        </g>
        <g transform="matrix(1,0,0,1,743.811,693.272)">
            <path d="M0,54.495C-0.524,7.884 6.878,-7.007 24.937,-16.755C46.088,-28.172 83.602,-35.375 145.382,8.041C179.376,31.931 218.787,45.032 210.871,16.42C204.709,-5.849 179.071,-28.944 135.461,-53.913C64.899,-94.316 17.704,-107.35 -24.068,-89.187C-59.634,-73.722 -59.828,-29.248 -37.85,29.622C-24.733,64.757 -3.614,105.761 39.478,161.845C32.856,146.471 0.584,106.433 0,54.495" style="fill:rgb(227,227,227);fill-rule:nonzero;"/>
        </g>
        <g transform="matrix(1,0,0,1,795.777,781.901)">
            <path d="M0,88.568C-23.76,48.464 -24.794,31.867 -14.029,14.394C-1.42,-6.069 27.466,-31.063 102.677,-24.354C144.062,-20.662 184.743,-29.022 163.582,-49.842C147.111,-66.046 113.36,-73.229 63.109,-73.047C-18.201,-72.756 -65.591,-60.446 -92.685,-23.83C-115.753,7.345 -93.684,45.958 -45.216,85.952C-16.289,109.821 22.503,134.772 87.864,161.797C74.443,151.793 26.475,133.256 0,88.568" style="fill:rgb(227,227,227);fill-rule:nonzero;"/>
        </g>
        <g transform="matrix(1,0,0,1,902.132,772.055)">
            <path d="M0,178.691C-40.629,155.839 -49.823,141.984 -49.236,121.47C-48.548,97.444 -36.029,61.355 32.46,29.56C70.147,12.064 101.198,-15.516 72.461,-22.965C50.095,-28.764 17.275,-18.108 -26.154,7.173C-96.425,48.082 -131.31,82.437 -136.466,127.694C-140.856,166.227 -102.438,188.632 -40.466,199.034C-3.48,205.242 42.59,207.455 112.706,198.177C96.082,196.224 45.272,204.154 0,178.691" style="fill:rgb(227,227,227);fill-rule:nonzero;"/>
        </g>
        <g transform="matrix(1,0,0,1,1034.38,808.134)">
            <path d="M0,158.959C-46.611,159.483 -61.502,152.081 -71.25,134.022C-82.667,112.871 -89.87,75.357 -46.454,13.577C-22.564,-20.417 -9.463,-59.828 -38.075,-51.912C-60.344,-45.75 -83.439,-20.112 -108.408,23.498C-148.811,94.06 -161.845,141.255 -143.682,183.027C-128.217,218.593 -83.743,218.787 -24.873,196.809C10.262,183.692 51.266,162.573 107.35,119.481C91.976,126.103 51.938,158.375 0,158.959" style="fill:rgb(227,227,227);fill-rule:nonzero;"/>
        </g>
        <g transform="matrix(1,0,0,1,743.806,939.636)">
            <path d="M0,443.37C18.811,500.769 49.006,550.933 90.584,593.861C131.873,636.79 181.747,663.898 240.111,675.185C205.382,631.677 307.639,631.677 272.91,675.185C331.274,663.898 381.148,636.79 422.437,593.861C464.015,550.933 494.21,500.769 513.021,443.37C531.736,385.971 543.988,330.887 549.679,278.312C555.468,225.929 559.423,172.389 561.642,117.691C563.86,63.09 529.903,3.279 532.701,27.107C535.499,50.935 501.156,72.93 489.483,55.469L294.326,-207.312C282.075,-223.616 269.437,-231.815 256.511,-231.815C243.584,-231.815 230.946,-223.616 218.695,-207.312L23.538,55.469C11.866,72.93 -22.477,50.935 -19.68,27.107C-16.882,3.279 -50.839,63.09 -48.62,117.691C-46.402,172.389 -42.446,225.929 -36.658,278.312C-30.966,330.887 -18.715,385.971 0,443.37Z" style="fill:rgb(111,58,128);fill-rule:nonzero;"/>
        </g>
        <g transform="matrix(1,0,0,1,1170.62,894.86)">
            <path d="M0,533.28C-0.868,511.285 -1.833,488.904 -2.99,466.234C-5.788,407.292 -17.654,350.472 -38.781,295.87C-60.679,239.243 -98.977,199.884 -153.771,177.599L-153.771,45.534C-128.014,51.129 -104.09,61.258 -81.999,75.921C-34.729,107.081 0.096,149.141 22.574,202.006C45.437,255.836 54.601,312.27 50.067,371.212C45.437,428.997 28.748,483.02 0,533.28ZM-337.93,466.234C-339.088,488.904 -340.053,511.285 -340.921,533.28C-369.765,483.02 -386.454,428.997 -390.988,371.212C-395.522,312.27 -386.358,255.836 -363.495,202.006C-341.017,149.141 -306.192,107.081 -258.922,75.921C-236.831,61.258 -212.907,51.129 -187.15,45.534L-187.15,177.599C-241.944,199.884 -280.242,239.243 -302.14,295.87C-323.267,350.472 -335.133,407.292 -337.93,466.234M-426.971,488.326C-408.16,545.725 -377.965,595.888 -336.387,638.817C-295.098,681.746 -245.224,708.853 -186.86,720.14C-221.589,676.633 -119.332,676.633 -154.061,720.14C-95.697,708.853 -45.823,681.746 -4.534,638.817C37.044,595.888 67.239,545.725 86.05,488.326C104.765,430.927 117.017,375.843 122.708,323.267C128.496,270.885 132.452,217.345 134.671,162.647C136.889,108.045 102.932,48.235 105.73,72.062C108.527,95.89 74.185,117.885 62.512,100.424L-132.645,-162.357C-144.896,-178.66 -157.534,-186.86 -170.46,-186.86C-183.387,-186.86 -196.025,-178.66 -208.276,-162.357L-403.433,100.424C-415.105,117.885 -449.448,95.89 -446.651,72.062C-443.853,48.235 -477.81,108.045 -475.591,162.647C-473.373,217.345 -469.417,270.885 -463.629,323.267C-457.938,375.843 -445.686,430.927 -426.971,488.325L-426.971,488.326Z" style="fill:rgb(11,11,11);fill-rule:nonzero;"/>
        </g>
        <g transform="matrix(1,0,0,1,940.009,1415.24)">
            <path d="M0,24.521C19.599,30.133 28.076,29.99 37.493,26.518C48.523,22.45 62.557,13.703 62.244,-7.199C62.071,-18.7 68.056,-30.319 77.863,-24.931C85.497,-20.739 87.778,-11.467 85.593,2.62C82.059,25.414 73.767,39.015 53.842,47.562C36.877,54.84 17.975,49.663 -0.539,37.124C-11.588,29.64 -22.783,19.419 -33.935,1.808C-29.358,5.309 -21.838,18.267 0,24.521" style="fill:rgb(255,215,0);fill-rule:nonzero;"/>
        </g>
        <g transform="matrix(1,0,0,1,940.009,1415.24)">
            <path d="M0,24.521C19.599,30.133 28.076,29.99 37.493,26.518C48.523,22.45 62.557,13.703 62.244,-7.199C62.071,-18.7 68.056,-30.319 77.863,-24.931C85.497,-20.739 87.778,-11.467 85.593,2.62C82.059,25.414 73.767,39.015 53.842,47.562C36.877,54.84 17.975,49.663 -0.539,37.124C-11.588,29.64 -22.783,19.419 -33.935,1.808C-29.358,5.309 -21.838,18.267 0,24.521Z" style="fill:none;fill-rule:nonzero;stroke:rgb(11,11,11);stroke-width:7px;"/>
        </g>
        <g transform="matrix(1,0,0,1,907.403,1412.09)">
            <path d="M0,-12.799C14.167,1.861 21.58,5.976 31.472,7.678C43.058,9.67 59.585,9.111 69.764,-9.147C75.365,-19.194 86.358,-26.264 92.158,-16.694C96.672,-9.246 94.012,-0.076 85.077,11.031C70.619,29.004 56.638,36.637 35.108,34.076C16.778,31.897 2.996,17.963 -6.768,-2.154C-12.595,-14.159 -17.18,-28.608 -18.032,-49.436C-15.819,-44.115 -15.786,-29.134 0,-12.799" style="fill:rgb(255,215,0);fill-rule:nonzero;"/>
        </g>
        <g transform="matrix(1,0,0,1,907.403,1412.09)">
            <path d="M0,-12.799C14.167,1.861 21.58,5.976 31.472,7.678C43.058,9.67 59.585,9.111 69.764,-9.147C75.365,-19.194 86.358,-26.264 92.158,-16.694C96.672,-9.246 94.012,-0.076 85.077,11.031C70.619,29.004 56.638,36.637 35.108,34.076C16.778,31.897 2.996,17.963 -6.768,-2.154C-12.595,-14.159 -17.18,-28.608 -18.032,-49.436C-15.819,-44.115 -15.786,-29.134 0,-12.799Z" style="fill:none;fill-rule:nonzero;stroke:rgb(11,11,11);stroke-width:7px;"/>
        </g>
        <g transform="matrix(1,0,0,1,899.402,1378.7)">
            <path d="M0,-30.766C4.939,-10.987 9.302,-3.717 17.018,2.702C26.056,10.221 40.647,18.001 58.592,7.278C68.466,1.378 81.521,0.752 81.759,11.939C81.944,20.646 75.056,27.258 61.764,32.409C40.257,40.745 24.332,40.365 6.967,27.383C-7.818,16.33 -12.786,-2.629 -11.184,-24.932C-10.228,-38.243 -6.974,-53.047 2.702,-71.511C1.959,-65.797 -5.503,-52.806 0,-30.766" style="fill:rgb(255,215,0);fill-rule:nonzero;"/>
        </g>
        <g transform="matrix(1,0,0,1,899.402,1378.7)">
            <path d="M0,-30.766C4.939,-10.987 9.302,-3.717 17.018,2.702C26.056,10.221 40.647,18.001 58.592,7.278C68.466,1.378 81.521,0.752 81.759,11.939C81.944,20.646 75.056,27.258 61.764,32.409C40.257,40.745 24.332,40.365 6.967,27.383C-7.818,16.33 -12.786,-2.629 -11.184,-24.932C-10.228,-38.243 -6.974,-53.047 2.702,-71.511C1.959,-65.797 -5.503,-52.806 0,-30.766Z" style="fill:none;fill-rule:nonzero;stroke:rgb(11,11,11);stroke-width:7px;"/>
        </g>
        <g transform="matrix(1,0,0,1,918.15,1353.31)">
            <path d="M0,-53.843C-5.612,-34.244 -5.469,-25.767 -1.997,-16.35C2.071,-5.32 10.818,8.714 31.72,8.401C43.221,8.228 54.84,14.213 49.452,24.02C45.26,31.654 35.988,33.935 21.901,31.75C-0.893,28.216 -14.494,19.924 -23.041,-0.001C-30.319,-16.966 -25.142,-35.868 -12.603,-54.382C-5.119,-65.431 5.102,-76.626 22.713,-87.778C19.212,-83.201 6.254,-75.681 0,-53.843" style="fill:rgb(255,215,0);fill-rule:nonzero;"/>
        </g>
        <g transform="matrix(1,0,0,1,918.15,1353.31)">
            <path d="M0,-53.843C-5.612,-34.244 -5.469,-25.767 -1.997,-16.35C2.071,-5.32 10.818,8.714 31.72,8.401C43.221,8.228 54.84,14.213 49.452,24.02C45.26,31.654 35.988,33.935 21.901,31.75C-0.893,28.216 -14.494,19.924 -23.041,-0.001C-30.319,-16.966 -25.142,-35.868 -12.603,-54.382C-5.119,-65.431 5.102,-76.626 22.713,-87.778C19.212,-83.201 6.254,-75.681 0,-53.843Z" style="fill:none;fill-rule:nonzero;stroke:rgb(11,11,11);stroke-width:7px;"/>
        </g>
        <g transform="matrix(1,0,0,1,958.624,1345.5)">
            <path d="M0,-78.64C-14.66,-64.473 -18.775,-57.06 -20.477,-47.168C-22.469,-35.582 -21.91,-19.055 -3.652,-8.876C6.395,-3.275 13.465,7.718 3.895,13.518C-3.553,18.032 -12.723,15.372 -23.83,6.437C-41.803,-8.021 -49.436,-22.002 -46.875,-43.532C-44.696,-61.862 -30.762,-75.644 -10.645,-85.408C1.36,-91.235 15.809,-95.82 36.637,-96.672C31.316,-94.459 16.335,-94.426 0,-78.64" style="fill:rgb(255,215,0);fill-rule:nonzero;"/>
        </g>
        <g transform="matrix(1,0,0,1,958.624,1345.5)">
            <path d="M0,-78.64C-14.66,-64.473 -18.775,-57.06 -20.477,-47.168C-22.469,-35.582 -21.91,-19.055 -3.652,-8.876C6.395,-3.275 13.465,7.718 3.895,13.518C-3.553,18.032 -12.723,15.372 -23.83,6.437C-41.803,-8.021 -49.436,-22.002 -46.875,-43.532C-44.696,-61.862 -30.762,-75.644 -10.645,-85.408C1.36,-91.235 15.809,-95.82 36.637,-96.672C31.316,-94.459 16.335,-94.426 0,-78.64Z" style="fill:none;fill-rule:nonzero;stroke:rgb(11,11,11);stroke-width:7px;"/>
        </g>
        <g transform="matrix(1,0,0,1,1009.98,1328.01)">
            <path d="M0,-69.158C-19.779,-64.219 -27.049,-59.856 -33.468,-52.14C-40.987,-43.102 -48.767,-28.511 -38.044,-10.566C-32.144,-0.692 -31.518,12.363 -42.705,12.601C-51.412,12.786 -58.024,5.898 -63.175,-7.394C-71.511,-28.901 -71.131,-44.826 -58.149,-62.191C-47.096,-76.976 -28.137,-81.944 -5.834,-80.342C7.477,-79.386 22.281,-76.132 40.745,-66.456C35.031,-67.199 22.04,-74.661 0,-69.158" style="fill:rgb(255,215,0);fill-rule:nonzero;"/>
        </g>
        <g transform="matrix(1,0,0,1,1009.98,1328.01)">
            <path d="M0,-69.158C-19.779,-64.219 -27.049,-59.856 -33.468,-52.14C-40.987,-43.102 -48.767,-28.511 -38.044,-10.566C-32.144,-0.692 -31.518,12.363 -42.705,12.601C-51.412,12.786 -58.024,5.898 -63.175,-7.394C-71.511,-28.901 -71.131,-44.826 -58.149,-62.191C-47.096,-76.976 -28.137,-81.944 -5.834,-80.342C7.477,-79.386 22.281,-76.132 40.745,-66.456C35.031,-67.199 22.04,-74.661 0,-69.158Z" style="fill:none;fill-rule:nonzero;stroke:rgb(11,11,11);stroke-width:7px;"/>
        </g>
        <g transform="matrix(1,0,0,1,1058.45,1302.13)">
            <path d="M0,-24.521C-19.599,-30.133 -28.076,-29.99 -37.493,-26.518C-48.523,-22.45 -62.557,-13.703 -62.244,7.199C-62.071,18.7 -68.056,30.319 -77.863,24.931C-85.497,20.739 -87.778,11.467 -85.593,-2.62C-82.059,-25.414 -73.767,-39.015 -53.842,-47.562C-36.877,-54.84 -17.975,-49.663 0.539,-37.124C11.588,-29.64 22.783,-19.419 33.935,-1.808C29.358,-5.309 21.838,-18.267 0,-24.521" style="fill:rgb(255,215,0);fill-rule:nonzero;"/>
        </g>
        <g transform="matrix(1,0,0,1,1058.45,1302.13)">
            <path d="M0,-24.521C-19.599,-30.133 -28.076,-29.99 -37.493,-26.518C-48.523,-22.45 -62.557,-13.703 -62.244,7.199C-62.071,18.7 -68.056,30.319 -77.863,24.931C-85.497,20.739 -87.778,11.467 -85.593,-2.62C-82.059,-25.414 -73.767,-39.015 -53.842,-47.562C-36.877,-54.84 -17.975,-49.663 0.539,-37.124C11.588,-29.64 22.783,-19.419 33.935,-1.808C29.358,-5.309 21.838,-18.267 0,-24.521Z" style="fill:none;fill-rule:nonzero;stroke:rgb(11,11,11);stroke-width:7px;"/>
        </g>
        <g transform="matrix(1,0,0,1,1091.06,1305.28)">
            <path d="M0,12.799C-14.167,-1.861 -21.58,-5.976 -31.472,-7.678C-43.058,-9.67 -59.585,-9.111 -69.764,9.147C-75.365,19.194 -86.358,26.264 -92.158,16.694C-96.672,9.246 -94.012,0.076 -85.077,-11.031C-70.619,-29.004 -56.638,-36.637 -35.108,-34.076C-16.778,-31.897 -2.996,-17.963 6.768,2.154C12.595,14.159 17.18,28.608 18.032,49.436C15.819,44.115 15.786,29.134 0,12.799" style="fill:rgb(255,215,0);fill-rule:nonzero;"/>
        </g>
        <g transform="matrix(1,0,0,1,1091.06,1305.28)">
            <path d="M0,12.799C-14.167,-1.861 -21.58,-5.976 -31.472,-7.678C-43.058,-9.67 -59.585,-9.111 -69.764,9.147C-75.365,19.194 -86.358,26.264 -92.158,16.694C-96.672,9.246 -94.012,0.076 -85.077,-11.031C-70.619,-29.004 -56.638,-36.637 -35.108,-34.076C-16.778,-31.897 -2.996,-17.963 6.768,2.154C12.595,14.159 17.18,28.608 18.032,49.436C15.819,44.115 15.786,29.134 0,12.799Z" style="fill:none;fill-rule:nonzero;stroke:rgb(11,11,11);stroke-width:7px;"/>
        </g>
        <g transform="matrix(1,0,0,1,1099.06,1338.67)">
            <path d="M0,30.766C-4.939,10.987 -9.302,3.717 -17.018,-2.702C-26.056,-10.221 -40.647,-18.001 -58.592,-7.278C-68.466,-1.378 -81.521,-0.752 -81.759,-11.939C-81.944,-20.646 -75.056,-27.258 -61.764,-32.409C-40.257,-40.745 -24.332,-40.365 -6.967,-27.383C7.818,-16.33 12.786,2.629 11.184,24.932C10.228,38.243 6.974,53.047 -2.702,71.511C-1.959,65.797 5.503,52.806 0,30.766" style="fill:rgb(255,215,0);fill-rule:nonzero;"/>
        </g>
        <g transform="matrix(1,0,0,1,1099.06,1338.67)">
            <path d="M0,30.766C-4.939,10.987 -9.302,3.717 -17.018,-2.702C-26.056,-10.221 -40.647,-18.001 -58.592,-7.278C-68.466,-1.378 -81.521,-0.752 -81.759,-11.939C-81.944,-20.646 -75.056,-27.258 -61.764,-32.409C-40.257,-40.745 -24.332,-40.365 -6.967,-27.383C7.818,-16.33 12.786,2.629 11.184,24.932C10.228,38.243 6.974,53.047 -2.702,71.511C-1.959,65.797 5.503,52.806 0,30.766Z" style="fill:none;fill-rule:nonzero;stroke:rgb(11,11,11);stroke-width:7px;"/>
        </g>
        <g transform="matrix(1,0,0,1,1080.31,1364.06)">
            <path d="M0,53.843C5.612,34.244 5.469,25.767 1.997,16.35C-2.071,5.32 -10.818,-8.714 -31.72,-8.401C-43.221,-8.228 -54.84,-14.213 -49.452,-24.02C-45.26,-31.654 -35.988,-33.935 -21.901,-31.75C0.893,-28.216 14.494,-19.924 23.041,0.001C30.319,16.966 25.142,35.868 12.603,54.382C5.119,65.431 -5.102,76.626 -22.713,87.778C-19.212,83.201 -6.254,75.681 0,53.843" style="fill:rgb(255,215,0);fill-rule:nonzero;"/>
        </g>
        <g transform="matrix(1,0,0,1,1080.31,1364.06)">
            <path d="M0,53.843C5.612,34.244 5.469,25.767 1.997,16.35C-2.071,5.32 -10.818,-8.714 -31.72,-8.401C-43.221,-8.228 -54.84,-14.213 -49.452,-24.02C-45.26,-31.654 -35.988,-33.935 -21.901,-31.75C0.893,-28.216 14.494,-19.924 23.041,0.001C30.319,16.966 25.142,35.868 12.603,54.382C5.119,65.431 -5.102,76.626 -22.713,87.778C-19.212,83.201 -6.254,75.681 0,53.843Z" style="fill:none;fill-rule:nonzero;stroke:rgb(11,11,11);stroke-width:7px;"/>
        </g>
        <g transform="matrix(1,0,0,1,1039.84,1371.87)">
            <path d="M0,78.64C14.66,64.473 18.775,57.06 20.477,47.168C22.469,35.582 21.91,19.055 3.652,8.876C-6.395,3.275 -13.465,-7.718 -3.895,-13.518C3.553,-18.032 12.723,-15.372 23.83,-6.437C41.803,8.021 49.436,22.002 46.875,43.532C44.696,61.862 30.762,75.644 10.645,85.408C-1.36,91.235 -15.809,95.82 -36.637,96.672C-31.316,94.459 -16.335,94.426 0,78.64" style="fill:rgb(255,215,0);fill-rule:nonzero;"/>
        </g>
        <g transform="matrix(1,0,0,1,1039.84,1371.87)">
            <path d="M0,78.64C14.66,64.473 18.775,57.06 20.477,47.168C22.469,35.582 21.91,19.055 3.652,8.876C-6.395,3.275 -13.465,-7.718 -3.895,-13.518C3.553,-18.032 12.723,-15.372 23.83,-6.437C41.803,8.021 49.436,22.002 46.875,43.532C44.696,61.862 30.762,75.644 10.645,85.408C-1.36,91.235 -15.809,95.82 -36.637,96.672C-31.316,94.459 -16.335,94.426 0,78.64Z" style="fill:none;fill-rule:nonzero;stroke:rgb(11,11,11);stroke-width:7px;"/>
        </g>
        <g transform="matrix(1,0,0,1,988.482,1389.35)">
            <path d="M0,69.158C19.779,64.219 27.049,59.856 33.468,52.14C40.987,43.102 48.767,28.511 38.044,10.566C32.144,0.692 31.518,-12.363 42.705,-12.601C51.412,-12.786 58.024,-5.898 63.175,7.394C71.511,28.901 71.131,44.826 58.149,62.191C47.096,76.976 28.137,81.944 5.834,80.342C-7.477,79.386 -22.281,76.132 -40.745,66.456C-35.031,67.199 -22.04,74.661 0,69.158" style="fill:rgb(255,215,0);fill-rule:nonzero;"/>
        </g>
        <g transform="matrix(1,0,0,1,988.482,1389.35)">
            <path d="M0,69.158C19.779,64.219 27.049,59.856 33.468,52.14C40.987,43.102 48.767,28.511 38.044,10.566C32.144,0.692 31.518,-12.363 42.705,-12.601C51.412,-12.786 58.024,-5.898 63.175,7.394C71.511,28.901 71.131,44.826 58.149,62.191C47.096,76.976 28.137,81.944 5.834,80.342C-7.477,79.386 -22.281,76.132 -40.745,66.456C-35.031,67.199 -22.04,74.661 0,69.158Z" style="fill:none;fill-rule:nonzero;stroke:rgb(11,11,11);stroke-width:7px;"/>
        </g>
        <g transform="matrix(1,0,0,1,1445.13,986.674)">
            <path d="M0,-61.736C13.876,-52.365 30.973,-38.931 48.01,-20.281C64.058,-2.712 75.444,14.443 83.392,28.465C75.544,14.589 66.825,-3.739 60.122,-26.187C52.692,-51.062 50.065,-73.2 49.304,-90.201C44.738,-85.069 37.391,-77.985 26.789,-71.893C16.349,-65.894 6.679,-63.112 0,-61.736" style="fill:rgb(227,227,227);fill-rule:nonzero;"/>
        </g>
        <g transform="matrix(1,0,0,1,1466.52,911.509)">
            <path d="M0,12.884C16.701,14.061 38.225,17.147 62.305,24.78C84.987,31.971 103.426,41.135 117.318,49.304C103.584,41.212 86.87,29.698 69.841,13.61C50.97,-4.218 37.625,-22.077 28.465,-36.42C27.077,-29.691 24.256,-19.883 18.121,-9.307C12.078,1.109 5.095,8.353 0,12.884" style="fill:rgb(227,227,227);fill-rule:nonzero;"/>
        </g>
        <g transform="matrix(1,0,0,1,1484.76,856.298)">
            <path d="M0,56.931C15.053,49.6 35.236,41.51 59.906,36.081C83.146,30.967 103.695,29.684 119.812,29.813C103.871,29.671 83.639,28.057 60.848,22.639C35.591,16.635 15.104,7.841 0,0C2.163,6.521 4.624,16.425 4.598,28.653C4.573,40.695 2.147,50.459 0,56.931" style="fill:rgb(227,227,227);fill-rule:nonzero;"/>
        </g>
        <g transform="matrix(1,0,0,1,1494.98,811.047)">
            <path d="M0,83.392C9.371,69.516 22.805,52.419 41.455,35.382C59.024,19.334 76.179,7.948 90.201,0C76.325,7.848 57.997,16.567 35.549,23.27C10.674,30.7 -11.464,33.327 -28.465,34.088C-23.333,38.654 -16.249,46.001 -10.157,56.603C-4.158,67.043 -1.376,76.713 0,83.392" style="fill:rgb(227,227,227);fill-rule:nonzero;"/>
        </g>
        <g transform="matrix(1,0,0,1,1494.44,755.739)">
            <path d="M0,117.318C1.177,100.617 4.263,79.093 11.896,55.013C19.087,32.331 28.251,13.892 36.42,0C28.328,13.734 16.814,30.448 0.726,47.477C-17.102,66.348 -34.961,79.693 -49.304,88.853C-42.575,90.241 -32.767,93.062 -22.191,99.197C-11.775,105.24 -4.531,112.223 0,117.318" style="fill:rgb(227,227,227);fill-rule:nonzero;"/>
        </g>
        <g transform="matrix(1,0,0,1,1483.27,735)">
            <path d="M0,119.812C-7.331,104.759 -15.421,84.576 -20.85,59.906C-25.964,36.666 -27.247,16.117 -27.118,0C-27.26,15.941 -28.874,36.173 -34.292,58.964C-40.296,84.221 -49.09,104.708 -56.931,119.812C-50.41,117.649 -40.506,115.188 -28.278,115.214C-16.236,115.239 -6.472,117.665 0,119.812" style="fill:rgb(227,227,227);fill-rule:nonzero;"/>
        </g>
        <g transform="matrix(1,0,0,1,1464.48,782.856)">
            <path d="M0,61.736C-13.876,52.365 -30.973,38.931 -48.01,20.281C-64.058,2.712 -75.444,-14.443 -83.392,-28.465C-75.544,-14.589 -66.825,3.739 -60.122,26.187C-52.692,51.062 -50.065,73.2 -49.304,90.201C-44.738,85.069 -37.391,77.985 -26.789,71.893C-16.349,65.894 -6.679,63.112 0,61.736" style="fill:rgb(227,227,227);fill-rule:nonzero;"/>
        </g>
        <g transform="matrix(1,0,0,1,1443.1,858.021)">
            <path d="M0,-12.884C-16.701,-14.061 -38.225,-17.147 -62.305,-24.78C-84.987,-31.971 -103.426,-41.135 -117.318,-49.304C-103.584,-41.212 -86.87,-29.698 -69.841,-13.61C-50.97,4.218 -37.625,22.077 -28.465,36.42C-27.077,29.691 -24.256,19.883 -18.121,9.307C-12.078,-1.109 -5.095,-8.353 0,-12.884" style="fill:rgb(227,227,227);fill-rule:nonzero;"/>
        </g>
        <g transform="matrix(1,0,0,1,1424.86,913.231)">
            <path d="M0,-56.931C-15.053,-49.6 -35.236,-41.51 -59.906,-36.081C-83.146,-30.967 -103.695,-29.684 -119.812,-29.813C-103.871,-29.671 -83.639,-28.057 -60.848,-22.639C-35.591,-16.635 -15.104,-7.841 0,0C-2.163,-6.521 -4.624,-16.425 -4.598,-28.653C-4.573,-40.695 -2.147,-50.459 0,-56.931" style="fill:rgb(227,227,227);fill-rule:nonzero;"/>
        </g>
        <g transform="matrix(1,0,0,1,1414.64,958.481)">
            <path d="M0,-83.392C-9.371,-69.516 -22.805,-52.419 -41.455,-35.382C-59.024,-19.334 -76.179,-7.948 -90.201,0C-76.325,-7.848 -57.997,-16.567 -35.549,-23.27C-10.674,-30.7 11.464,-33.327 28.465,-34.088C23.333,-38.654 16.249,-46.001 10.157,-56.603C4.158,-67.043 1.376,-76.713 0,-83.392" style="fill:rgb(227,227,227);fill-rule:nonzero;"/>
        </g>
        <g transform="matrix(1,0,0,1,1415.18,1013.79)">
            <path d="M0,-117.318C-1.177,-100.617 -4.263,-79.093 -11.896,-55.013C-19.087,-32.331 -28.251,-13.892 -36.42,0C-28.328,-13.734 -16.814,-30.448 -0.726,-47.477C17.102,-66.348 34.961,-79.693 49.304,-88.853C42.575,-90.241 32.767,-93.062 22.191,-99.197C11.775,-105.24 4.531,-112.223 0,-117.318" style="fill:rgb(227,227,227);fill-rule:nonzero;"/>
        </g>
        <g transform="matrix(1,0,0,1,1426.34,1034.53)">
            <path d="M0,-119.812C7.331,-104.759 15.421,-84.576 20.85,-59.906C25.964,-36.666 27.247,-16.117 27.118,0C27.26,-15.941 28.874,-36.173 34.292,-58.964C40.296,-84.221 49.09,-104.708 56.931,-119.812C50.41,-117.649 40.506,-115.188 28.278,-115.214C16.236,-115.239 6.472,-117.665 0,-119.812" style="fill:rgb(227,227,227);fill-rule:nonzero;"/>
        </g>
        <g transform="matrix(1,0,0,1,563.665,844.282)">
            <path d="M0,32.491C8.591,28.307 20.109,23.69 34.188,20.592C47.452,17.673 59.18,16.941 68.377,17.014C59.28,16.934 47.734,16.012 34.727,12.92C20.312,9.493 8.62,4.475 0,0C1.234,3.721 2.639,9.374 2.624,16.352C2.61,23.224 1.225,28.797 0,32.491" style="fill:rgb(227,227,227);fill-rule:nonzero;"/>
        </g>
        <g transform="matrix(1,0,0,1,562.816,775.056)">
            <path d="M0,68.377C-4.184,59.786 -8.801,48.268 -11.899,34.189C-14.818,20.925 -15.55,9.197 -15.477,0C-15.557,9.097 -16.479,20.643 -19.571,33.65C-22.998,48.065 -28.016,59.757 -32.491,68.377C-28.77,67.143 -23.117,65.738 -16.139,65.753C-9.267,65.767 -3.694,67.152 0,68.377" style="fill:rgb(227,227,227);fill-rule:nonzero;"/>
        </g>
        <g transform="matrix(1,0,0,1,529.476,876.773)">
            <path d="M0,-32.491C-8.591,-28.307 -20.109,-23.69 -34.188,-20.592C-47.452,-17.673 -59.18,-16.941 -68.377,-17.014C-59.28,-16.934 -47.734,-16.012 -34.727,-12.92C-20.312,-9.493 -8.62,-4.475 0,0C-1.234,-3.721 -2.639,-9.374 -2.624,-16.352C-2.61,-23.224 -1.225,-28.797 0,-32.491" style="fill:rgb(227,227,227);fill-rule:nonzero;"/>
        </g>
        <g transform="matrix(1,0,0,1,530.325,946)">
            <path d="M0,-68.377C4.184,-59.786 8.801,-48.268 11.899,-34.189C14.818,-20.925 15.55,-9.197 15.477,0C15.557,-9.097 16.479,-20.643 19.571,-33.65C22.998,-48.065 28.016,-59.757 32.491,-68.377C28.77,-67.143 23.117,-65.738 16.139,-65.753C9.267,-65.767 3.694,-67.152 0,-68.377" style="fill:rgb(227,227,227);fill-rule:nonzero;"/>
        </g>
        <g transform="matrix(1,0,0,1,526.333,1007.06)">
            <path d="M0,16.27C4.302,14.175 10.07,11.863 17.12,10.312C23.762,8.85 29.635,8.483 34.24,8.52C29.685,8.479 23.903,8.018 17.389,6.47C10.171,4.754 4.316,2.241 0,0C0.618,1.863 1.321,4.694 1.313,8.188C1.307,11.63 0.613,14.42 0,16.27" style="fill:rgb(227,227,227);fill-rule:nonzero;"/>
        </g>
        <g transform="matrix(1,0,0,1,525.907,972.399)">
            <path d="M0,34.24C-2.095,29.938 -4.407,24.17 -5.958,17.12C-7.42,10.478 -7.787,4.605 -7.75,0C-7.791,4.555 -8.252,10.337 -9.8,16.851C-11.516,24.069 -14.029,29.924 -16.27,34.24C-14.407,33.622 -11.576,32.919 -8.082,32.927C-4.64,32.933 -1.85,33.627 0,34.24" style="fill:rgb(227,227,227);fill-rule:nonzero;"/>
        </g>
        <g transform="matrix(1,0,0,1,509.211,1023.33)">
            <path d="M0,-16.27C-4.302,-14.175 -10.07,-11.863 -17.12,-10.312C-23.762,-8.85 -29.635,-8.483 -34.24,-8.52C-29.685,-8.479 -23.903,-8.018 -17.389,-6.47C-10.171,-4.754 -4.316,-2.241 0,0C-0.618,-1.863 -1.321,-4.694 -1.313,-8.188C-1.307,-11.63 -0.613,-14.42 0,-16.27" style="fill:rgb(227,227,227);fill-rule:nonzero;"/>
        </g>
        <g transform="matrix(1,0,0,1,509.637,1058)">
            <path d="M0,-34.24C2.095,-29.938 4.407,-24.17 5.958,-17.12C7.42,-10.478 7.787,-4.605 7.75,0C7.791,-4.555 8.252,-10.337 9.8,-16.851C11.516,-24.069 14.029,-29.924 16.27,-34.24C14.407,-33.622 11.576,-32.919 8.082,-32.927C4.64,-32.933 1.85,-33.627 0,-34.24" style="fill:rgb(227,227,227);fill-rule:nonzero;"/>
        </g>
        <g transform="matrix(1,0,0,1,497.058,930.504)">
            <path d="M0,10.061C2.66,8.765 6.227,7.335 10.586,6.376C14.693,5.473 18.324,5.246 21.172,5.269C18.355,5.244 14.78,4.958 10.752,4.001C6.289,2.94 2.669,1.386 0,0C0.382,1.153 0.817,2.903 0.812,5.063C0.808,7.191 0.379,8.917 0,10.061" style="fill:rgb(227,227,227);fill-rule:nonzero;"/>
        </g>
        <g transform="matrix(1,0,0,1,496.795,909.07)">
            <path d="M0,21.172C-1.296,18.512 -2.726,14.945 -3.685,10.586C-4.588,6.479 -4.815,2.848 -4.792,0C-4.817,2.817 -5.103,6.392 -6.06,10.42C-7.121,14.883 -8.675,18.503 -10.061,21.172C-8.908,20.79 -7.158,20.355 -4.998,20.36C-2.87,20.364 -1.144,20.793 0,21.172" style="fill:rgb(227,227,227);fill-rule:nonzero;"/>
        </g>
        <g transform="matrix(1,0,0,1,486.472,940.565)">
            <path d="M0,-10.061C-2.66,-8.765 -6.227,-7.335 -10.586,-6.376C-14.693,-5.473 -18.324,-5.246 -21.172,-5.269C-18.355,-5.244 -14.78,-4.958 -10.752,-4.001C-6.289,-2.94 -2.669,-1.386 0,0C-0.382,-1.153 -0.817,-2.903 -0.812,-5.063C-0.808,-7.191 -0.379,-8.917 0,-10.061" style="fill:rgb(227,227,227);fill-rule:nonzero;"/>
        </g>
        <g transform="matrix(1,0,0,1,486.735,962)">
            <path d="M0,-21.172C1.296,-18.512 2.726,-14.945 3.685,-10.586C4.588,-6.479 4.815,-2.848 4.792,0C4.817,-2.817 5.103,-6.392 6.06,-10.42C7.121,-14.883 8.675,-18.503 10.061,-21.172C8.908,-20.79 7.158,-20.355 4.998,-20.36C2.87,-20.364 1.144,-20.793 0,-21.172" style="fill:rgb(227,227,227);fill-rule:nonzero;"/>
        </g>
        <g transform="matrix(1,0,0,1,610.394,751.839)">
            <path d="M0,10.061C2.66,8.766 6.227,7.336 10.586,6.376C14.693,5.473 18.324,5.246 21.172,5.269C18.355,5.244 14.78,4.958 10.753,4.001C6.29,2.94 2.669,1.386 0,0C0.382,1.153 0.817,2.903 0.813,5.064C0.809,7.192 0.379,8.917 0,10.061" style="fill:rgb(227,227,227);fill-rule:nonzero;"/>
        </g>
        <g transform="matrix(1,0,0,1,610.131,730.406)">
            <path d="M0,21.172C-1.295,18.512 -2.725,14.945 -3.685,10.586C-4.588,6.479 -4.815,2.848 -4.792,0C-4.817,2.817 -5.103,6.392 -6.06,10.419C-7.121,14.882 -8.675,18.503 -10.061,21.172C-8.908,20.79 -7.158,20.355 -4.997,20.359C-2.869,20.363 -1.144,20.793 0,21.172" style="fill:rgb(227,227,227);fill-rule:nonzero;"/>
        </g>
        <g transform="matrix(1,0,0,1,599.808,761.902)">
            <path d="M0,-10.061C-2.66,-8.766 -6.227,-7.336 -10.586,-6.376C-14.693,-5.473 -18.324,-5.246 -21.172,-5.269C-18.355,-5.244 -14.78,-4.958 -10.753,-4.001C-6.29,-2.94 -2.669,-1.386 0,0C-0.382,-1.153 -0.817,-2.903 -0.813,-5.064C-0.809,-7.192 -0.379,-8.917 0,-10.061" style="fill:rgb(227,227,227);fill-rule:nonzero;"/>
        </g>
        <g transform="matrix(1,0,0,1,600.07,783.336)">
            <path d="M0,-21.172C1.295,-18.512 2.725,-14.945 3.685,-10.586C4.588,-6.479 4.815,-2.848 4.792,0C4.817,-2.817 5.103,-6.392 6.06,-10.419C7.121,-14.882 8.675,-18.503 10.061,-21.172C8.908,-20.79 7.158,-20.355 4.997,-20.359C2.869,-20.363 1.144,-20.793 0,-21.172" style="fill:rgb(227,227,227);fill-rule:nonzero;"/>
        </g>
        <g transform="matrix(1,0,0,1,592.07,1070.64)">
            <path d="M0,10.061C2.66,8.766 6.227,7.336 10.586,6.376C14.692,5.473 18.324,5.246 21.172,5.269C18.355,5.244 14.78,4.958 10.753,4.001C6.289,2.94 2.669,1.386 0,0C0.382,1.153 0.817,2.903 0.812,5.064C0.809,7.192 0.379,8.917 0,10.061" style="fill:rgb(227,227,227);fill-rule:nonzero;"/>
        </g>
        <g transform="matrix(1,0,0,1,591.807,1049.2)">
            <path d="M0,21.172C-1.295,18.512 -2.725,14.945 -3.685,10.586C-4.588,6.48 -4.815,2.848 -4.792,0C-4.817,2.817 -5.103,6.392 -6.06,10.419C-7.121,14.883 -8.675,18.503 -10.061,21.172C-8.908,20.79 -7.158,20.355 -4.997,20.36C-2.869,20.363 -1.144,20.793 0,21.172" style="fill:rgb(227,227,227);fill-rule:nonzero;"/>
        </g>
        <g transform="matrix(1,0,0,1,581.484,1080.7)">
            <path d="M0,-10.061C-2.66,-8.766 -6.227,-7.336 -10.586,-6.376C-14.692,-5.473 -18.324,-5.246 -21.172,-5.269C-18.355,-5.244 -14.78,-4.958 -10.753,-4.001C-6.289,-2.94 -2.669,-1.386 0,0C-0.382,-1.153 -0.817,-2.903 -0.812,-5.064C-0.809,-7.192 -0.379,-8.917 0,-10.061" style="fill:rgb(227,227,227);fill-rule:nonzero;"/>
        </g>
        <g transform="matrix(1,0,0,1,581.747,1102.13)">
            <path d="M0,-21.172C1.295,-18.512 2.725,-14.945 3.685,-10.586C4.588,-6.48 4.815,-2.848 4.792,0C4.817,-2.817 5.103,-6.392 6.06,-10.419C7.121,-14.883 8.675,-18.503 10.061,-21.172C8.908,-20.79 7.158,-20.355 4.997,-20.36C2.869,-20.363 1.144,-20.793 0,-21.172" style="fill:rgb(227,227,227);fill-rule:nonzero;"/>
        </g>
        <g transform="matrix(1,0,0,1,640.337,948.535)">
            <path d="M0,16.27C4.302,14.175 10.07,11.863 17.12,10.312C23.762,8.85 29.635,8.483 34.241,8.52C29.685,8.479 23.903,8.018 17.39,6.47C10.171,4.754 4.316,2.241 0,0C0.618,1.863 1.321,4.694 1.314,8.188C1.307,11.63 0.614,14.42 0,16.27" style="fill:rgb(227,227,227);fill-rule:nonzero;"/>
        </g>
        <g transform="matrix(1,0,0,1,639.912,913.868)">
            <path d="M0,34.241C-2.095,29.939 -4.407,24.171 -5.958,17.121C-7.42,10.479 -7.787,4.606 -7.75,0C-7.791,4.556 -8.252,10.338 -9.8,16.851C-11.516,24.07 -14.029,29.925 -16.27,34.241C-14.407,33.623 -11.576,32.92 -8.082,32.927C-4.64,32.934 -1.85,33.627 0,34.241" style="fill:rgb(227,227,227);fill-rule:nonzero;"/>
        </g>
        <g transform="matrix(1,0,0,1,623.217,964.804)">
            <path d="M0,-16.27C-4.302,-14.175 -10.07,-11.863 -17.12,-10.312C-23.762,-8.85 -29.635,-8.483 -34.241,-8.52C-29.685,-8.479 -23.903,-8.018 -17.39,-6.47C-10.171,-4.754 -4.316,-2.241 0,0C-0.618,-1.863 -1.321,-4.694 -1.314,-8.188C-1.307,-11.63 -0.614,-14.42 0,-16.27" style="fill:rgb(227,227,227);fill-rule:nonzero;"/>
        </g>
        <g transform="matrix(1,0,0,1,623.642,999.47)">
            <path d="M0,-34.241C2.095,-29.939 4.407,-24.171 5.958,-17.121C7.42,-10.479 7.787,-4.606 7.75,0C7.791,-4.556 8.252,-10.338 9.8,-16.851C11.516,-24.07 14.029,-29.925 16.27,-34.241C14.407,-33.623 11.576,-32.92 8.082,-32.927C4.64,-32.934 1.85,-33.627 0,-34.241" style="fill:rgb(227,227,227);fill-rule:nonzero;"/>
        </g>
        <g transform="matrix(1,0,0,1,1469.65,1179.45)">
            <path d="M0,-35.536C7.986,-30.141 17.828,-22.41 27.635,-11.674C36.872,-1.561 43.426,8.314 48,16.385C43.482,8.397 38.465,-2.152 34.606,-15.074C30.33,-29.392 28.818,-42.135 28.379,-51.921C25.751,-48.966 21.521,-44.889 15.42,-41.383C9.41,-37.929 3.844,-36.329 0,-35.536" style="fill:rgb(227,227,227);fill-rule:nonzero;"/>
        </g>
        <g transform="matrix(1,0,0,1,1481.96,1136.19)">
            <path d="M0,7.416C9.615,8.094 22.004,9.87 35.864,14.263C48.921,18.403 59.534,23.678 67.531,28.38C59.625,23.722 50.004,17.094 40.202,7.833C29.34,-2.428 21.658,-12.708 16.386,-20.964C15.588,-17.09 13.963,-11.445 10.432,-5.357C6.953,0.639 2.934,4.807 0,7.416" style="fill:rgb(227,227,227);fill-rule:nonzero;"/>
        </g>
        <g transform="matrix(1,0,0,1,1492.46,1104.41)">
            <path d="M0,32.771C8.665,28.551 20.282,23.894 34.482,20.769C47.859,17.826 59.688,17.087 68.965,17.162C59.789,17.08 48.144,16.151 35.024,13.032C20.486,9.576 8.694,4.514 0,0C1.245,3.754 2.661,9.456 2.646,16.494C2.633,23.425 1.235,29.045 0,32.771" style="fill:rgb(227,227,227);fill-rule:nonzero;"/>
        </g>
        <g transform="matrix(1,0,0,1,1498.34,1078.36)">
            <path d="M0,48C5.395,40.014 13.126,30.172 23.862,20.365C33.975,11.128 43.85,4.574 51.921,0C43.933,4.518 33.384,9.535 20.462,13.394C6.144,17.67 -6.599,19.182 -16.385,19.621C-13.43,22.249 -9.353,26.479 -5.847,32.58C-2.393,38.59 -0.793,44.156 0,48" style="fill:rgb(227,227,227);fill-rule:nonzero;"/>
        </g>
        <g transform="matrix(1,0,0,1,1498.03,1046.52)">
            <path d="M0,67.531C0.678,57.916 2.454,45.527 6.847,31.667C10.987,18.61 16.262,7.997 20.964,0C16.306,7.906 9.678,17.527 0.417,27.329C-9.844,38.191 -20.124,45.873 -28.38,51.145C-24.506,51.943 -18.861,53.568 -12.773,57.099C-6.777,60.578 -2.609,64.597 0,67.531" style="fill:rgb(227,227,227);fill-rule:nonzero;"/>
        </g>
        <g transform="matrix(1,0,0,1,1491.6,1034.59)">
            <path d="M0,68.965C-4.22,60.3 -8.877,48.683 -12.002,34.483C-14.945,21.106 -15.684,9.277 -15.609,0C-15.691,9.176 -16.62,20.821 -19.739,33.941C-23.195,48.479 -28.257,60.271 -32.771,68.965C-29.017,67.72 -23.315,66.304 -16.277,66.319C-9.346,66.332 -3.726,67.73 0,68.965" style="fill:rgb(227,227,227);fill-rule:nonzero;"/>
        </g>
        <g transform="matrix(1,0,0,1,1480.79,1062.13)">
            <path d="M0,35.536C-7.986,30.141 -17.828,22.41 -27.635,11.674C-36.872,1.561 -43.426,-8.314 -48,-16.385C-43.482,-8.397 -38.465,2.152 -34.606,15.074C-30.33,29.392 -28.818,42.135 -28.379,51.921C-25.751,48.966 -21.521,44.889 -15.42,41.383C-9.41,37.929 -3.844,36.329 0,35.536" style="fill:rgb(227,227,227);fill-rule:nonzero;"/>
        </g>
        <g transform="matrix(1,0,0,1,1468.48,1105.4)">
            <path d="M0,-7.416C-9.615,-8.094 -22.004,-9.87 -35.864,-14.263C-48.921,-18.403 -59.534,-23.678 -67.531,-28.38C-59.625,-23.722 -50.004,-17.094 -40.202,-7.833C-29.34,2.428 -21.658,12.708 -16.386,20.964C-15.588,17.09 -13.963,11.445 -10.432,5.357C-6.953,-0.639 -2.934,-4.807 0,-7.416" style="fill:rgb(227,227,227);fill-rule:nonzero;"/>
        </g>
        <g transform="matrix(1,0,0,1,1457.98,1137.18)">
            <path d="M0,-32.771C-8.665,-28.551 -20.282,-23.894 -34.482,-20.769C-47.859,-17.826 -59.688,-17.087 -68.965,-17.162C-59.789,-17.08 -48.144,-16.151 -35.024,-13.032C-20.486,-9.576 -8.694,-4.514 0,0C-1.245,-3.754 -2.661,-9.456 -2.646,-16.494C-2.633,-23.425 -1.235,-29.045 0,-32.771" style="fill:rgb(227,227,227);fill-rule:nonzero;"/>
        </g>
        <g transform="matrix(1,0,0,1,1452.09,1163.22)">
            <path d="M0,-48C-5.395,-40.014 -13.126,-30.172 -23.862,-20.365C-33.975,-11.128 -43.85,-4.574 -51.921,0C-43.933,-4.518 -33.384,-9.535 -20.462,-13.394C-6.144,-17.67 6.599,-19.182 16.385,-19.621C13.43,-22.249 9.353,-26.479 5.847,-32.58C2.393,-38.59 0.793,-44.156 0,-48" style="fill:rgb(227,227,227);fill-rule:nonzero;"/>
        </g>
        <g transform="matrix(1,0,0,1,1452.41,1195.06)">
            <path d="M0,-67.531C-0.678,-57.916 -2.454,-45.527 -6.847,-31.667C-10.987,-18.61 -16.262,-7.997 -20.964,0C-16.306,-7.906 -9.678,-17.527 -0.417,-27.329C9.844,-38.191 20.124,-45.873 28.38,-51.145C24.506,-51.943 18.861,-53.568 12.773,-57.099C6.777,-60.578 2.609,-64.597 0,-67.531" style="fill:rgb(227,227,227);fill-rule:nonzero;"/>
        </g>
        <g transform="matrix(1,0,0,1,1458.83,1207)">
            <path d="M0,-68.965C4.22,-60.3 8.877,-48.683 12.002,-34.483C14.945,-21.106 15.684,-9.277 15.609,0C15.691,-9.176 16.62,-20.821 19.739,-33.941C23.195,-48.479 28.257,-60.271 32.771,-68.965C29.017,-67.72 23.315,-66.304 16.277,-66.319C9.346,-66.332 3.726,-67.73 0,-68.965" style="fill:rgb(227,227,227);fill-rule:nonzero;"/>
        </g>
        <g transform="matrix(0.873573,0.486693,-0.486693,0.873573,0,0)">
            <text x="1304.64px" y="1172.7px" style="font-family:'Lora-Regular', 'Lora';font-size:165.296px;fill:rgb(227,227,227);">A</text>
        </g>
        <g transform="matrix(0.933342,0.35899,-0.35899,0.933342,0,0)">
            <text x="1233.43px" y="1360.13px" style="font-family:'Lora-Regular', 'Lora';font-size:165.296px;fill:rgb(227,227,227);">V</text>
        </g>
        <g transform="matrix(0.971446,0.237261,-0.237261,0.971446,0,0)">
            <text x="1175.69px" y="1519.88px" style="font-family:'Lora-Regular', 'Lora';font-size:165.296px;fill:rgb(227,227,227);">I</text>
        </g>
        <g transform="matrix(0.994535,0.1044,-0.1044,0.994535,0,0)">
            <text x="1033.55px" y="1675.65px" style="font-family:'Lora-Regular', 'Lora';font-size:165.296px;fill:rgb(227,227,227);">N</text>
        </g>
        <g transform="matrix(0.998307,-0.0581702,0.0581702,0.998307,0,0)">
            <text x="883.683px" y="1841.76px" style="font-family:'Lora-Regular', 'Lora';font-size:165.296px;fill:rgb(227,227,227);">A</text>
        </g>
        <g transform="matrix(0.975425,-0.220331,0.220331,0.975425,0,0)">
            <text x="692.059px" y="1980.9px" style="font-family:'Lora-Regular', 'Lora';font-size:165.296px;fill:rgb(227,227,227);">D</text>
        </g>
        <g transform="matrix(0.928731,-0.370753,0.370753,0.928731,0,0)">
            <text x="503.287px" y="2084.66px" style="font-family:'Lora-Regular', 'Lora';font-size:165.296px;fill:rgb(227,227,227);">A</text>
        </g>
        <g transform="matrix(0.86432,-0.502942,0.502942,0.86432,0,0)">
            <text x="312.103px" y="2152.53px" style="font-family:'Lora-Regular', 'Lora';font-size:165.296px;fill:rgb(227,227,227);">L</text>
        </g>
    </g>
</svg>
